<svg xmlns="http://www.w3.org/2000/svg" version="1.1" xmlns:xlink="http://www.w3.org/1999/xlink" width="512" height="512"><svg width="512" height="512" viewBox="0 0 512 512" fill="none" xmlns="http://www.w3.org/2000/svg">
  <!-- Book cover -->
  <path d="M128 64C128 28.7 156.7 0 192 0H320C355.3 0 384 28.7 384 64V448C384 483.3 355.3 512 320 512H192C156.7 512 128 483.3 128 448V64Z" fill="#4B5563"></path>
  <!-- Book pages -->
  <path d="M144 64C144 46.3 158.3 32 176 32H336C353.7 32 368 46.3 368 64V448C368 465.7 353.7 480 336 480H176C158.3 480 144 465.7 144 448V64Z" fill="#F3F4F6"></path>
  <!-- Cross -->
  <path d="M256 160V352" stroke="#4B5563" stroke-width="32" stroke-linecap="round"></path>
  <path d="M208 208H304" stroke="#4B5563" stroke-width="32" stroke-linecap="round"></path>
</svg><style>@media (prefers-color-scheme: light) { :root { filter: none; } }
@media (prefers-color-scheme: dark) { :root { filter: none; } }
</style></svg>